<svg height="210" width="800"><path class="leaflet-interactive" stroke="#18a0fb" stroke-opacity="1" stroke-width="2" stroke-linecap="round" stroke-linejoin="round" fill="#18a0fb" fill-opacity="1" fill-rule="evenodd" d="M194 123L195 120L193 106L189 104L185 106L185 108L183 108L180 102L178 104L174 90L171 89L177 80L176 75L171 73L171 61L169 61L166 67L162 64L156 55L157 49L161 49L161 39L129 38L117 36L115 37L116 48L120 62L116 64L115 70L122 80L121 84L110 84L111 85L104 98L104 102L116 101L119 105L118 108L129 111L132 117L137 116L148 118L149 115L151 114L161 116L163 125L166 127L165 131L172 132L178 139L178 141L180 141L187 163L194 162L199 158L198 149L201 149L201 145L199 143L201 135L199 131L194 127L194 124z"></path></svg>
