<svg height="210" width="800"><path class="leaflet-interactive" stroke="#18a0fb" stroke-opacity="1" stroke-width="2" stroke-linecap="round" stroke-linejoin="round" fill="#18a0fb" fill-opacity="1" fill-rule="evenodd" d="M94 37L63 37L64 41L59 43L58 41L55 46L57 52L55 54L55 71L64 74L59 82L61 82L61 85L62 84L64 87L67 88L67 90L63 92L63 94L66 97L61 103L62 112L72 111L73 113L75 112L78 116L78 118L76 118L75 120L76 123L74 125L69 122L65 124L56 123L57 128L68 130L70 136L73 139L73 141L70 144L68 144L70 147L63 149L64 150L62 155L66 161L66 164L158 164L163 156L164 151L172 140L181 138L181 136L186 132L188 133L190 131L194 131L196 133L197 131L202 133L203 130L205 129L200 126L201 122L207 117L208 118L211 111L210 105L212 104L209 91L210 88L216 80L216 78L222 72L232 68L232 66L226 66L216 60L217 58L226 52L232 53L235 56L234 60L236 64L248 61L249 56L245 39L236 43L239 48L237 50L227 50L225 49L228 44L217 41L215 37L105 37z"></path></svg>
