<svg height="210" width="800"><path class="leaflet-interactive" stroke="#18a0fb" stroke-opacity="1" stroke-width="2" stroke-linecap="round" stroke-linejoin="round" fill="#18a0fb" fill-opacity="1" fill-rule="evenodd" d="M125 101L127 108L125 110L126 111L122 123L120 125L121 174L160 174L160 157L172 157L197 120L197 114L193 110L195 109L194 105L191 99L189 98L186 84L190 80L196 57L189 52L188 48L180 48L180 42L174 35L159 33L159 30L153 30L151 28L147 29L147 27L139 26L125 28L126 37L121 41L114 42L112 52L106 66L106 89L117 94L119 101z"></path></svg>
