<svg height="210" width="800"><path class="leaflet-interactive" stroke="#18a0fb" stroke-opacity="1" stroke-width="2" stroke-linecap="round" stroke-linejoin="round" fill="#18a0fb" fill-opacity="1" fill-rule="evenodd" d="M168 48L160 50L157 49L153 53L147 52L145 53L145 55L143 52L142 54L144 62L142 66L137 72L136 76L133 77L134 79L132 82L130 82L128 86L121 89L120 91L121 94L119 95L121 98L118 110L120 121L133 134L140 138L140 140L144 142L147 140L148 143L152 143L153 145L159 146L167 152L173 151L170 139L173 127L179 123L177 111L179 103L177 101L177 93L179 92L182 85L179 83L182 80L186 65L184 61L180 59L179 54L173 50z"></path></svg>
