<svg height="210" width="800"><path class="leaflet-interactive" stroke="#18a0fb" stroke-opacity="1" stroke-width="2" stroke-linecap="round" stroke-linejoin="round" fill="#18a0fb" fill-opacity="1" fill-rule="evenodd" d="M98 46L97 86L107 89L119 99L123 99L123 101L127 105L140 114L146 124L154 128L158 136L163 137L167 142L169 141L174 143L189 155L190 149L191 150L192 148L192 140L198 133L199 134L198 132L200 131L199 130L202 124L206 122L202 113L196 108L194 109L191 106L189 107L186 104L178 102L165 95L165 93L150 83L145 84L140 81L137 82L131 80L124 72L118 69L115 65L111 64L105 58L105 56L99 48L100 47z"></path></svg>
