<svg height="210" width="800"><path class="leaflet-interactive" stroke="#18a0fb" stroke-opacity="1" stroke-width="2" stroke-linecap="round" stroke-linejoin="round" fill="#18a0fb" fill-opacity="1" fill-rule="evenodd" d="M124 60L125 61L122 65L122 81L124 84L120 85L119 89L114 94L112 98L113 100L111 109L106 113L110 116L109 117L112 128L109 130L111 134L110 141L111 143L114 143L114 146L121 154L126 164L131 166L136 165L141 169L142 172L147 172L159 178L158 133L196 133L199 108L197 105L198 102L195 98L196 97L193 94L192 83L194 78L187 69L184 62L183 44L181 41L180 34L177 32L176 29L169 29L165 25L158 27L154 26L150 32L143 32L143 26L140 25L139 22L135 25L131 25L130 27L128 27L125 38L115 40L119 47L117 52L118 59L120 59L121 56L123 57z"></path></svg>
