<svg height="210" width="800"><path class="leaflet-interactive" stroke="#18a0fb" stroke-opacity="1" stroke-width="2" stroke-linecap="round" stroke-linejoin="round" fill="#18a0fb" fill-opacity="1" fill-rule="evenodd" d="M146 147L148 147L150 144L149 140L152 139L154 135L155 137L159 137L162 135L163 131L166 133L172 129L174 131L175 129L177 131L181 127L182 121L183 123L186 123L190 118L192 118L192 116L198 116L199 110L201 110L205 103L202 90L207 67L203 63L203 60L200 56L197 54L197 49L199 46L197 44L198 41L194 38L193 39L190 35L186 35L186 37L186 32L181 34L181 36L180 35L179 37L178 35L175 35L175 37L173 37L171 40L166 38L165 36L163 37L164 40L161 40L160 42L163 48L162 56L160 56L162 62L160 64L163 68L160 70L161 73L159 80L155 83L154 91L149 91L147 97L144 97L139 100L138 105L128 106L125 108L123 114L120 113L119 116L117 116L118 124L113 128L112 131L107 130L104 126L98 125L98 134L100 135L107 149L106 150L108 158L117 166L120 167L122 163L125 164L130 156L136 152L138 154L140 151L143 152L143 150L141 149L143 147L144 149z"></path></svg>
