<svg height="210" width="800"><path class="leaflet-interactive" stroke="#18a0fb" stroke-opacity="1" stroke-width="2" stroke-linecap="round" stroke-linejoin="round" fill="#18a0fb" fill-opacity="1" fill-rule="evenodd" d="M178 122L185 112L197 109L192 101L192 69L180 63L175 63L174 60L169 56L165 57L158 54L157 48L149 40L147 37L147 33L145 34L143 32L143 27L142 29L140 28L137 31L136 36L132 35L132 37L128 39L129 44L126 43L127 45L125 48L127 51L125 51L127 58L124 61L124 64L127 66L124 72L129 84L129 93L133 96L133 99L130 103L119 108L121 116L117 126L119 126L118 129L113 127L113 131L116 136L114 142L111 142L110 146L114 149L114 151L110 153L110 158L107 162L110 166L109 169L116 171L117 170L123 173L126 171L129 167L127 162L130 159L137 157L139 155L143 156L148 154L148 152L151 151L153 139L167 131L172 125L175 125L177 122z"></path></svg>
