<svg height="210" width="800"><path class="leaflet-interactive" stroke="#18a0fb" stroke-opacity="1" stroke-width="2" stroke-linecap="round" stroke-linejoin="round" fill="#18a0fb" fill-opacity="1" fill-rule="evenodd" d="M215 131L218 131L224 135L227 134L227 136L231 139L250 139L256 135L253 129L247 126L243 126L243 86L222 72L204 69L198 71L195 69L191 70L181 67L173 68L170 66L169 62L160 59L157 56L156 52L145 52L145 50L140 46L144 41L143 37L141 35L132 34L132 66L135 68L137 74L133 74L124 78L115 90L110 92L105 98L94 103L92 106L93 110L91 112L91 116L88 117L88 119L83 121L80 120L67 126L69 132L66 136L61 137L57 135L50 135L49 145L52 159L51 163L52 165L204 165L206 158L206 150L202 140L202 132L205 128L209 126L211 129L209 128L209 130L212 129z"></path></svg>
