<svg height="210" width="800"><path class="leaflet-interactive" stroke="#18a0fb" stroke-opacity="1" stroke-width="2" stroke-linecap="round" stroke-linejoin="round" fill="#18a0fb" fill-opacity="1" fill-rule="evenodd" d="M206 127L223 105L223 57L213 49L213 45L193 45L192 47L192 45L186 45L185 51L180 59L178 66L172 51L163 47L159 47L155 60L157 61L157 68L163 71L162 77L167 83L170 81L176 86L178 83L182 83L182 100L179 105L173 108L172 110L167 107L165 110L161 109L159 106L153 107L149 104L144 95L140 93L140 83L132 79L131 83L133 88L131 99L125 99L117 93L117 91L112 87L110 95L87 107L86 106L82 114L82 116L87 122L83 124L95 126L126 127L128 129L128 133L127 137L123 137L122 143L128 152L132 155L136 148L139 151L147 154L148 148L151 147L155 147L157 150L166 152L166 150L174 151L179 138L198 138L199 136z"></path></svg>
