<svg height="210" width="800"><path class="leaflet-interactive" stroke="#18a0fb" stroke-opacity="1" stroke-width="2" stroke-linecap="round" stroke-linejoin="round" fill="#18a0fb" fill-opacity="1" fill-rule="evenodd" d="M128 77L128 82L132 90L132 93L135 95L136 99L139 102L137 112L138 118L141 121L140 122L143 126L142 129L144 132L141 156L176 157L174 80L177 76L180 66L179 65L181 63L179 59L180 57L173 56L172 50L169 47L162 44L156 44L154 46L147 47L142 47L139 44L125 44L124 53L126 57L124 57L128 68L128 76z"></path></svg>
