<svg height="210" width="800"><path class="leaflet-interactive" stroke="#18a0fb" stroke-opacity="1" stroke-width="2" stroke-linecap="round" stroke-linejoin="round" fill="#18a0fb" fill-opacity="1" fill-rule="evenodd" d="M124 93L121 97L119 97L116 100L113 110L114 114L112 117L110 115L108 121L111 135L115 136L116 138L113 141L114 146L118 152L118 155L125 155L128 152L130 143L132 143L133 141L137 142L141 138L141 140L144 142L145 148L152 148L156 142L160 143L167 141L169 144L177 145L179 146L179 148L183 149L181 146L181 136L195 136L192 130L188 127L188 111L182 101L159 78L144 76L144 64L146 61L136 45L134 46L129 44L129 49L127 50L128 54L126 58L126 64L124 63L121 68L124 82L122 88L125 89L125 91z"></path></svg>
