<svg height="210" width="800"><path class="leaflet-interactive" stroke="#18a0fb" stroke-opacity="1" stroke-width="2" stroke-linecap="round" stroke-linejoin="round" fill="#18a0fb" fill-opacity="1" fill-rule="evenodd" d="M183 88L186 85L188 85L192 80L194 80L193 79L195 77L194 74L196 71L196 65L194 63L184 62L183 59L177 54L174 47L175 46L129 45L126 48L128 48L129 55L125 60L126 65L121 69L121 73L119 76L122 84L118 86L118 93L116 95L114 94L107 104L109 108L107 118L108 122L110 123L110 127L116 124L121 125L122 131L120 131L120 133L122 135L120 141L126 149L148 149L153 152L157 152L165 156L166 155L159 142L154 142L157 142L159 140L157 131L155 131L157 129L157 125L160 119L166 116L164 114L165 113L162 112L165 111L167 115L173 111L175 100L173 102L173 100L175 96L183 88z"></path></svg>
