<svg height="210" width="800"><path class="leaflet-interactive" stroke="#18a0fb" stroke-opacity="1" stroke-width="2" stroke-linecap="round" stroke-linejoin="round" fill="#18a0fb" fill-opacity="1" fill-rule="evenodd" d="M165 127L168 126L165 123L167 115L169 116L172 114L177 102L179 89L181 90L181 87L184 88L185 81L189 82L189 58L182 59L176 57L169 61L168 59L155 57L152 51L147 53L136 53L134 65L117 58L117 67L114 68L114 76L115 78L118 78L128 85L126 91L128 93L115 110L122 114L122 123L125 132L129 137L129 141L130 142L131 138L133 138L135 144L140 149L142 149L144 145L150 141L158 146L160 142L163 144L164 143L166 137L169 137L165 128z"></path></svg>
